<svg version="1.1" id="Layer_1" xmlns="http://www.w3.org/2000/svg" xmlns:xlink="http://www.w3.org/1999/xlink" x="0px" y="0px"
	 width="100%" viewBox="0 0 959 720" enable-background="new 0 0 959 720" xml:space="preserve">
<path fill="none" opacity="1.000000" stroke="none" 
	d="
M576.000000,721.000000 
	C384.333344,721.000000 192.666672,721.000000 1.000000,720.998047 
	C1.000000,719.663940 1.000000,718.331726 1.468657,716.499756 
	C28.757984,715.999939 55.578838,715.952515 82.399086,716.059082 
	C85.802216,716.072571 87.386581,715.131470 88.141968,711.572876 
	C90.544998,700.252014 93.384880,689.024414 96.022171,677.752808 
	C99.481300,662.968811 102.908249,648.177368 106.439583,633.000000 
	C108.535278,633.000000 110.338287,633.000000 112.141296,633.000000 
	C135.796890,633.000000 159.452805,632.940918 183.107773,633.063354 
	C186.677872,633.081848 188.349899,632.179565 189.197891,628.372864 
	C192.218781,614.811584 195.705994,601.354248 199.013672,587.856750 
	C200.186462,583.071106 201.350815,578.283325 202.690186,572.795166 
	C174.901352,572.795166 147.707016,572.795166 120.159592,572.795166 
	C122.356300,563.135437 124.601067,554.164429 126.365402,545.099915 
	C127.164398,540.994873 128.997726,539.868103 133.081284,539.903564 
	C156.068787,540.103455 179.059235,539.943604 202.047882,540.059753 
	C205.565887,540.077515 207.426193,539.324585 208.187775,535.428833 
	C209.708923,527.647705 211.893845,519.996765 213.785782,512.287415 
	C216.776871,500.099304 219.752411,487.907379 222.795547,475.467651 
	C221.682266,475.275787 220.900909,475.023529 220.119461,475.023224 
	C166.644485,475.003052 113.169449,475.034637 59.694706,474.923492 
	C56.468384,474.916779 55.702599,476.700531 55.177834,479.009613 
	C52.649696,490.134064 50.290630,501.297363 47.710281,512.409424 
	C38.846306,550.581482 29.875242,588.728638 21.023254,626.903442 
	C15.197199,652.028748 9.536353,677.192444 3.685287,702.311829 
	C3.293948,703.991882 1.917998,705.442627 1.000001,707.000000 
	C1.000000,471.778656 1.000000,236.557281 1.000000,1.000000 
	C66.689613,1.000000 132.379791,1.000000 198.715057,1.414363 
	C196.517380,2.219275 193.602783,2.346596 190.857819,3.095573 
	C189.111588,3.572049 186.450821,4.730510 186.190018,5.993926 
	C183.557953,18.744169 181.296600,31.572086 179.012222,44.392639 
	C176.583450,58.023506 174.356995,71.691261 171.832458,85.304016 
	C169.014557,100.498680 165.807144,115.621727 163.048096,130.826538 
	C159.529221,150.218735 156.391022,169.679825 152.899902,189.077255 
	C149.729477,206.692902 146.245575,224.251907 143.013931,241.856827 
	C140.543823,255.313293 138.359756,268.822571 135.851990,282.271759 
	C133.019302,297.463440 129.832489,312.589508 127.047035,327.789429 
	C124.140305,343.651154 121.620277,359.583466 118.760635,375.454163 
	C116.038658,390.560791 113.096527,405.627747 110.215820,420.899628 
	C122.825363,421.565186 134.835175,422.199066 147.229919,422.892578 
	C156.423813,419.122009 165.235168,415.297272 174.041306,411.460541 
	C199.578186,400.334412 225.120972,389.221741 250.645935,378.068298 
	C269.005310,370.045990 287.339844,361.966766 305.873810,354.224792 
	C311.496826,358.714355 316.801666,363.075104 322.389587,367.036591 
	C342.089905,381.002716 363.674530,391.003296 386.756897,398.112946 
	C411.345764,405.686676 436.510162,409.301086 462.095428,409.849121 
	C473.101288,410.084900 484.178314,409.023285 495.157257,407.905396 
	C505.536957,406.848480 515.935059,405.445099 526.139954,403.309509 
	C546.871704,398.971008 566.745422,391.956482 585.639771,382.218262 
	C607.160217,402.904083 628.551147,423.465424 650.118713,444.196503 
	C651.175781,443.206543 652.177429,442.361725 653.072571,441.416107 
	C664.573425,429.267334 676.031982,417.078369 687.557800,404.953400 
	C695.672607,396.416718 703.877136,387.965332 712.035522,379.469971 
	C728.121521,362.719330 744.204407,345.965607 760.286682,329.211334 
	C776.138306,312.697388 791.952515,296.147339 807.848999,279.676758 
	C820.192505,266.887482 832.557129,254.116241 845.089905,241.513596 
	C848.501526,238.082932 850.832031,235.130295 850.242676,229.544891 
	C849.286316,220.481064 849.889160,211.252731 849.888000,201.741180 
	C846.242371,197.706894 842.591858,193.973969 838.834106,190.352386 
	C821.512939,173.658875 804.167603,156.990448 786.819031,140.325363 
	C779.164978,132.972839 771.470398,125.662521 763.815430,118.310982 
	C746.584900,101.763313 729.372253,85.196999 712.142700,68.648277 
	C704.368164,61.180958 696.524048,53.785519 688.793640,46.272949 
	C674.497925,32.380051 660.248352,18.439514 646.035339,4.462035 
	C645.113525,3.555484 644.667419,2.165232 644.000000,1.000003 
	C749.275940,1.000000 854.551941,1.000000 960.000000,1.000000 
	C960.000000,158.689957 960.000000,316.379974 959.531372,474.534973 
	C891.925232,475.000000 824.787598,475.047089 757.650513,474.886017 
	C753.505798,474.876068 751.905457,476.173401 750.798828,479.976135 
	C746.446838,494.929993 741.738464,509.779694 737.243958,524.692627 
	C735.166443,531.585815 733.276611,538.535522 731.148315,545.997498 
	C753.557434,545.997498 775.329590,545.997498 797.777466,545.997498 
	C784.197083,602.864990 770.744934,659.195435 757.180176,715.997253 
	C785.621277,715.997253 813.092102,716.053345 840.560791,715.837219 
	C841.984436,715.825989 844.190247,713.734009 844.657715,712.193726 
	C846.238708,706.984131 847.133423,701.570435 848.409668,696.263428 
	C856.918335,660.880066 865.474060,625.507996 873.979797,590.123962 
	C877.488831,575.526306 880.912415,560.908142 884.445740,546.000000 
	C886.648987,546.000000 888.455078,546.000000 890.261108,546.000000 
	C907.087158,546.000000 923.914246,545.898315 940.738464,546.073730 
	C944.781372,546.115906 946.384338,545.023865 947.193054,540.730774 
	C950.495605,523.198853 954.334595,505.767456 958.071167,488.319336 
	C958.257690,487.448456 959.336548,486.768707 960.000000,485.999969 
	C960.000000,564.273010 960.000000,642.546021 960.000000,721.000000 
	C852.310059,721.000000 744.620056,721.000000 636.525024,720.615479 
	C636.612793,719.849182 637.063660,719.210510 637.604370,719.122192 
	C666.532715,714.397522 690.901367,701.548462 709.728210,678.775879 
	C722.666687,663.125732 730.213623,645.512878 728.968689,624.847290 
	C728.084656,610.172302 721.934814,597.559875 710.571838,588.649231 
	C700.992249,581.137024 690.064026,575.239136 679.360352,569.297791 
	C670.216797,564.222473 660.471252,560.243225 651.143188,555.482849 
	C647.666260,553.708496 643.920288,551.538879 644.044922,546.744263 
	C644.168823,541.978394 647.435974,539.307495 651.285034,537.411499 
	C654.093506,536.028137 657.056335,534.820862 660.080383,534.036926 
	C670.939392,531.222046 681.486145,533.893677 691.906372,536.544983 
	C701.009949,538.861328 709.949585,541.821838 719.412842,544.631714 
	C725.369934,522.512756 731.246155,500.693848 737.426941,477.744080 
	C722.944824,475.428833 709.194702,472.125397 695.291077,471.245270 
	C668.957764,469.578278 642.930420,471.928162 618.103210,482.074219 
	C593.804565,492.004333 573.785522,506.712799 562.383728,531.222717 
	C556.426758,544.028076 555.360962,557.487915 558.116699,571.107605 
	C560.399109,582.387939 567.204407,591.022217 575.871216,598.502136 
	C587.556091,608.586731 600.719055,616.069031 614.670044,622.413330 
	C621.181763,625.374573 627.634033,628.523682 633.868713,632.023193 
	C642.923584,637.105591 643.670837,645.940063 634.742859,651.205750 
	C629.162537,654.497009 621.984375,656.812317 615.606262,656.631897 
	C604.641785,656.321716 593.606323,654.323547 582.853760,651.907654 
	C572.259460,649.527222 561.979187,645.748840 551.369934,642.525696 
	C545.092346,665.039429 538.810242,687.569153 532.281982,710.981628 
	C544.692505,713.485229 556.022522,715.689575 567.307983,718.102356 
	C570.276184,718.736938 573.106384,720.016602 576.000000,721.000000 
M439.499878,471.000000 
	C426.215057,471.356201 412.907166,471.342926 399.651886,472.171570 
	C386.137543,473.016418 372.686157,474.827545 359.183533,475.923950 
	C354.467316,476.306885 350.683685,476.919189 350.489716,482.837952 
	C350.420837,484.939850 349.477600,487.006073 348.993652,489.102478 
	C338.876068,532.932129 328.809235,576.773438 318.642059,620.591553 
	C311.614044,650.880371 304.437927,681.134705 297.385773,711.417969 
	C297.077393,712.742188 297.346313,714.200867 297.346313,715.539795 
	C298.325378,715.755554 298.802765,715.952393 299.280304,715.952820 
	C325.273590,715.978638 351.267242,715.920898 377.259644,716.077454 
	C380.800293,716.098755 381.352142,713.998352 381.907898,711.543152 
	C387.018890,688.963928 392.086792,666.374939 397.216125,643.799988 
	C397.683075,641.744812 398.490692,639.767151 399.140137,637.753479 
	C399.575012,637.750000 400.009857,637.746521 400.444702,637.743042 
	C409.571655,661.753967 418.848175,685.710022 427.696014,709.823364 
	C429.410736,714.496643 431.502594,716.169189 436.542542,716.122131 
	C464.033264,715.865417 491.527588,716.000000 519.020691,716.000000 
	C520.807007,716.000000 522.593262,716.000000 525.606567,716.000000 
	C511.279999,685.281799 498.651398,654.872498 479.742676,627.345337 
	C483.436859,626.068726 487.436676,624.570679 491.507385,623.299622 
	C510.378845,617.407043 524.939697,605.751526 535.678040,589.437805 
	C546.092285,573.616516 550.263123,556.073792 550.172363,537.033020 
	C550.050476,511.469513 533.578369,489.101196 509.512939,480.693848 
	C487.128418,472.873779 463.990326,470.766693 439.499878,471.000000 
M203.953140,648.443970 
	C198.765533,670.791931 193.577911,693.139893 188.274704,715.985840 
	C216.732498,715.985840 244.530716,716.027954 272.327454,715.842712 
	C273.528442,715.834656 275.462830,713.914734 275.789459,712.576477 
	C278.140686,702.941895 280.074097,693.206482 282.308411,683.542053 
	C290.950287,646.161438 299.629242,608.789368 308.344391,571.425842 
	C315.407043,541.146851 322.559418,510.888794 329.594635,480.603485 
	C329.976349,478.960236 329.643921,477.151093 329.643921,475.220490 
	C327.687958,475.132599 326.213318,475.009247 324.738617,475.008575 
	C299.579742,474.996704 274.420166,475.094177 249.262772,474.902435 
	C245.309464,474.872284 243.749329,476.174255 242.938843,479.906830 
	C240.202606,492.508453 237.152130,505.041565 234.259079,517.609436 
	C230.141113,535.498474 226.106934,553.406982 221.944916,571.285706 
	C216.020142,596.736633 210.011856,622.168213 203.953140,648.443970 
M902.114685,704.343018 
	C904.257996,699.598633 905.034363,694.814514 904.101807,689.513428 
	C902.544373,680.659546 896.851074,675.319519 888.986877,673.440552 
	C881.142578,671.566406 872.934753,672.561218 867.059998,679.505066 
	C859.242615,688.745117 860.522217,704.267212 869.506409,710.736328 
	C880.513611,718.661926 894.333435,716.165222 902.114685,704.343018 
z"/>
<path fill="#0066B3" opacity="1.000000" stroke="none" 
	d="
M643.600037,1.000003 
	C644.667419,2.165232 645.113525,3.555484 646.035339,4.462035 
	C660.248352,18.439514 674.497925,32.380051 688.793640,46.272949 
	C696.524048,53.785519 704.368164,61.180958 712.142700,68.648277 
	C729.372253,85.196999 746.584900,101.763313 763.815430,118.310982 
	C771.470398,125.662521 779.164978,132.972839 786.819031,140.325363 
	C804.167603,156.990448 821.512939,173.658875 838.834106,190.352386 
	C842.591858,193.973969 846.242371,197.706894 849.602661,201.884430 
	C845.014709,206.837646 840.781006,211.308899 836.515930,215.750092 
	C803.990784,249.618240 771.474548,283.494843 738.925049,317.339539 
	C717.683533,339.426270 696.382202,361.455383 675.126038,383.528015 
	C666.851135,392.120758 658.626648,400.762054 650.043091,409.732483 
	C635.627625,395.814850 621.712891,382.380615 607.995300,369.136841 
	C615.995728,362.337219 624.038635,356.544037 630.789551,349.510712 
	C640.088074,339.823364 648.410278,329.198822 657.498840,318.762451 
	C657.912903,317.856476 657.978821,317.163849 658.099182,316.383820 
	C658.153625,316.296417 658.477722,316.047028 658.811523,316.312378 
	C660.078735,315.907166 661.147156,315.365112 661.925110,314.546814 
	C673.692505,302.168945 685.371460,289.706665 697.175171,277.363647 
	C707.624207,266.437225 718.232971,255.663651 728.713318,244.766830 
	C736.532471,236.636856 744.259155,228.417953 752.367004,220.153458 
	C758.307129,214.510620 763.907349,208.953003 769.773682,203.131271 
	C727.300598,162.372238 685.447083,122.207718 643.364441,81.823311 
	C602.825867,124.057945 562.654724,165.909729 521.984314,208.281693 
	C528.371460,213.947495 534.172180,219.093094 540.137512,224.514664 
	C551.138367,235.297577 561.930176,245.850983 572.828613,256.293030 
	C578.797363,262.011841 584.946228,267.542572 591.013794,273.505127 
	C585.587463,278.811188 580.734924,284.685913 574.607056,288.524780 
	C564.179810,295.057037 552.950317,300.308533 541.781250,305.903931 
	C508.450531,273.834351 475.396545,241.959015 442.247009,209.771820 
	C442.100830,209.028397 442.050140,208.596848 442.302734,208.009125 
	C456.059692,194.077911 469.561066,180.349014 482.947052,166.508499 
	C489.731598,159.493576 496.307831,152.277176 503.291992,145.013306 
	C513.098755,134.959991 522.591736,125.045219 532.390259,114.990097 
	C535.484131,112.011879 538.334229,109.231842 541.048706,106.325081 
	C548.577698,98.262657 556.050232,90.147491 563.742859,81.814346 
	C569.619629,75.559975 575.235413,69.483292 580.990356,63.541325 
	C593.804810,50.310390 606.716309,37.173580 619.532898,23.944717 
	C626.100952,17.165455 632.567261,10.287103 639.021301,3.398968 
	C639.572815,2.810361 639.684204,1.809401 640.000000,1.000003 
	C641.066711,1.000000 642.133362,1.000000 643.600037,1.000003 
z"/>
<path fill="#ED1C24" opacity="1.000000" stroke="none" 
	d="
M441.999481,208.165314 
	C442.050140,208.596848 442.100830,209.028397 442.159546,210.221481 
	C442.111786,218.273697 442.564758,225.613815 441.862549,232.841690 
	C441.102905,240.660782 443.768524,246.057251 449.642548,251.216415 
	C459.190033,259.602081 467.924347,268.913574 476.631927,277.912201 
	C463.927246,283.440674 451.547485,288.792175 439.270599,294.370178 
	C427.459808,299.736450 415.755463,305.337097 403.610565,310.906677 
	C379.784454,303.469727 358.601776,292.227844 341.910767,273.618225 
	C362.378082,263.874542 382.624084,254.412521 403.348724,244.726822 
	C355.419647,200.103928 308.045990,155.998123 260.140045,111.396759 
	C258.627289,118.975517 257.304535,125.385620 256.129913,131.822754 
	C256.012573,132.465805 256.795685,133.273163 256.973572,134.361847 
	C255.408127,141.718307 254.023697,148.715958 252.652969,155.716293 
	C248.433304,177.266068 244.219528,198.816986 240.002258,220.367233 
	C236.722519,237.126724 233.362823,253.871124 230.190125,270.650848 
	C228.347763,280.394775 226.804474,290.195251 224.932556,300.306519 
	C222.051208,309.422638 220.082840,318.321411 219.309723,328.014191 
	C236.743500,320.624420 253.197540,313.649933 269.264099,306.839691 
	C275.365570,315.977539 280.726898,324.973145 287.067963,333.215027 
	C292.709900,340.548157 299.437195,347.046265 305.685455,353.912903 
	C287.339844,361.966766 269.005310,370.045990 250.645935,378.068298 
	C225.120972,389.221741 199.578186,400.334412 174.041306,411.460541 
	C165.235168,415.297272 156.423813,419.122009 147.259613,422.471985 
	C146.937042,421.159943 146.872620,420.310852 147.016571,419.498749 
	C150.479248,399.965729 153.924271,380.429443 157.457184,360.909058 
	C160.543625,343.855621 163.790756,326.831177 166.862045,309.775055 
	C170.057983,292.026672 173.172379,274.263275 176.239456,256.492126 
	C178.655670,242.492340 180.793533,228.443192 183.328064,214.465469 
	C187.036377,194.014557 191.062820,173.621521 194.815384,153.178421 
	C198.161484,134.949646 201.349731,116.691650 204.551498,98.436707 
	C207.089050,83.968758 209.534653,69.484703 212.034134,55.010052 
	C214.028183,43.462284 215.977402,31.906191 218.072098,20.376606 
	C219.249878,13.893843 220.682297,7.457342 222.000000,0.999999 
	C222.750000,1.000000 223.500000,1.000000 224.355835,1.289523 
	C225.215546,2.460132 225.896973,3.417710 226.734207,4.210792 
	C238.755234,15.597725 250.848465,26.908901 262.819000,38.348518 
	C273.617157,48.667744 284.287323,59.120941 295.011414,69.517654 
	C295.967468,70.444542 296.887451,71.408989 297.853424,72.325195 
	C308.285950,82.220436 318.724396,92.109489 329.186951,102.338860 
	C331.164062,104.419930 333.146240,106.129257 335.061615,107.910461 
	C344.343719,116.542351 353.607849,125.193535 363.025146,134.154984 
	C371.725616,142.313980 380.279327,150.155869 388.985535,158.306671 
	C406.758514,175.132172 424.378998,191.648743 441.999481,208.165314 
z"/>
<path fill="#FFF" opacity="1.000000" stroke="none" 
	d="
M576.468628,721.000000 
	C573.106384,720.016602 570.276184,718.736938 567.307983,718.102356 
	C556.022522,715.689575 544.692505,713.485229 532.281982,710.981628 
	C538.810242,687.569153 545.092346,665.039429 551.369934,642.525696 
	C561.979187,645.748840 572.259460,649.527222 582.853760,651.907654 
	C593.606323,654.323547 604.641785,656.321716 615.606262,656.631897 
	C621.984375,656.812317 629.162537,654.497009 634.742859,651.205750 
	C643.670837,645.940063 642.923584,637.105591 633.868713,632.023193 
	C627.634033,628.523682 621.181763,625.374573 614.670044,622.413330 
	C600.719055,616.069031 587.556091,608.586731 575.871216,598.502136 
	C567.204407,591.022217 560.399109,582.387939 558.116699,571.107605 
	C555.360962,557.487915 556.426758,544.028076 562.383728,531.222717 
	C573.785522,506.712799 593.804565,492.004333 618.103210,482.074219 
	C642.930420,471.928162 668.957764,469.578278 695.291077,471.245270 
	C709.194702,472.125397 722.944824,475.428833 737.426941,477.744080 
	C731.246155,500.693848 725.369934,522.512756 719.412842,544.631714 
	C709.949585,541.821838 701.009949,538.861328 691.906372,536.544983 
	C681.486145,533.893677 670.939392,531.222046 660.080383,534.036926 
	C657.056335,534.820862 654.093506,536.028137 651.285034,537.411499 
	C647.435974,539.307495 644.168823,541.978394 644.044922,546.744263 
	C643.920288,551.538879 647.666260,553.708496 651.143188,555.482849 
	C660.471252,560.243225 670.216797,564.222473 679.360352,569.297791 
	C690.064026,575.239136 700.992249,581.137024 710.571838,588.649231 
	C721.934814,597.559875 728.084656,610.172302 728.968689,624.847290 
	C730.213623,645.512878 722.666687,663.125732 709.728210,678.775879 
	C690.901367,701.548462 666.532715,714.397522 637.604370,719.122192 
	C637.063660,719.210510 636.612793,719.849182 636.059998,720.615479 
	C616.312439,721.000000 596.624878,721.000000 576.468628,721.000000 
z"/>
<path fill="#FFF" opacity="1.000000" stroke="none" 
	d="
M1.000001,707.449951 
	C1.917998,705.442627 3.293948,703.991882 3.685287,702.311829 
	C9.536353,677.192444 15.197199,652.028748 21.023254,626.903442 
	C29.875242,588.728638 38.846306,550.581482 47.710281,512.409424 
	C50.290630,501.297363 52.649696,490.134064 55.177834,479.009613 
	C55.702599,476.700531 56.468384,474.916779 59.694706,474.923492 
	C113.169449,475.034637 166.644485,475.003052 220.119461,475.023224 
	C220.900909,475.023529 221.682266,475.275787 222.795547,475.467651 
	C219.752411,487.907379 216.776871,500.099304 213.785782,512.287415 
	C211.893845,519.996765 209.708923,527.647705 208.187775,535.428833 
	C207.426193,539.324585 205.565887,540.077515 202.047882,540.059753 
	C179.059235,539.943604 156.068787,540.103455 133.081284,539.903564 
	C128.997726,539.868103 127.164398,540.994873 126.365402,545.099915 
	C124.601067,554.164429 122.356300,563.135437 120.159592,572.795166 
	C147.707016,572.795166 174.901352,572.795166 202.690186,572.795166 
	C201.350815,578.283325 200.186462,583.071106 199.013672,587.856750 
	C195.705994,601.354248 192.218781,614.811584 189.197891,628.372864 
	C188.349899,632.179565 186.677872,633.081848 183.107773,633.063354 
	C159.452805,632.940918 135.796890,633.000000 112.141296,633.000000 
	C110.338287,633.000000 108.535278,633.000000 106.439583,633.000000 
	C102.908249,648.177368 99.481300,662.968811 96.022171,677.752808 
	C93.384880,689.024414 90.544998,700.252014 88.141968,711.572876 
	C87.386581,715.131470 85.802216,716.072571 82.399086,716.059082 
	C55.578838,715.952515 28.757984,715.999939 1.468657,716.000000 
	C1.000000,713.299988 1.000000,710.599976 1.000001,707.449951 
z"/>
<path fill="#FFF" opacity="1.000000" stroke="none" 
	d="
M960.000000,485.541901 
	C959.336548,486.768707 958.257690,487.448456 958.071167,488.319336 
	C954.334595,505.767456 950.495605,523.198853 947.193054,540.730774 
	C946.384338,545.023865 944.781372,546.115906 940.738464,546.073730 
	C923.914246,545.898315 907.087158,546.000000 890.261108,546.000000 
	C888.455078,546.000000 886.648987,546.000000 884.445740,546.000000 
	C880.912415,560.908142 877.488831,575.526306 873.979797,590.123962 
	C865.474060,625.507996 856.918335,660.880066 848.409668,696.263428 
	C847.133423,701.570435 846.238708,706.984131 844.657715,712.193726 
	C844.190247,713.734009 841.984436,715.825989 840.560791,715.837219 
	C813.092102,716.053345 785.621277,715.997253 757.180176,715.997253 
	C770.744934,659.195435 784.197083,602.864990 797.777466,545.997498 
	C775.329590,545.997498 753.557434,545.997498 731.148315,545.997498 
	C733.276611,538.535522 735.166443,531.585815 737.243958,524.692627 
	C741.738464,509.779694 746.446838,494.929993 750.798828,479.976135 
	C751.905457,476.173401 753.505798,474.876068 757.650513,474.886017 
	C824.787598,475.047089 891.925232,475.000000 959.531372,475.000000 
	C960.000000,478.361298 960.000000,481.722565 960.000000,485.541901 
z"/>
<path fill="#000000" opacity="1.000000" stroke="none" 
	d="
M329.161194,102.000244 
	C318.724396,92.109489 308.285950,82.220436 297.853424,72.325195 
	C296.887451,71.408989 295.967468,70.444542 295.011414,69.517654 
	C284.287323,59.120941 273.617157,48.667744 262.819000,38.348518 
	C250.848465,26.908901 238.755234,15.597725 226.734207,4.210792 
	C225.896973,3.417710 225.215546,2.460132 224.730835,1.289523 
	C363.020905,1.000000 501.041779,1.000000 639.531372,1.000003 
	C639.684204,1.809401 639.572815,2.810361 639.021301,3.398968 
	C632.567261,10.287103 626.100952,17.165455 619.532898,23.944717 
	C606.716309,37.173580 593.804810,50.310390 580.990356,63.541325 
	C575.235413,69.483292 569.619629,75.559975 563.456970,81.525444 
	C550.694214,77.848000 538.596924,73.304314 526.090393,70.823624 
	C510.209747,67.673676 494.055634,65.383286 477.911560,64.223259 
	C461.023163,63.009754 443.997894,63.896221 427.274017,67.063744 
	C413.691925,69.636192 400.083405,72.279678 386.735077,75.826759 
	C366.138306,81.299988 347.306641,90.970192 329.161194,102.000244 
z"/>
<path fill="#9A999A" opacity="1.000000" stroke="none" 
	d="
M221.531372,0.999999 
	C220.682297,7.457342 219.249878,13.893843 218.072098,20.376606 
	C215.977402,31.906191 214.028183,43.462284 212.034134,55.010052 
	C209.534653,69.484703 207.089050,83.968758 204.551498,98.436707 
	C201.349731,116.691650 198.161484,134.949646 194.815384,153.178421 
	C191.062820,173.621521 187.036377,194.014557 183.328064,214.465469 
	C180.793533,228.443192 178.655670,242.492340 176.239456,256.492126 
	C173.172379,274.263275 170.057983,292.026672 166.862045,309.775055 
	C163.790756,326.831177 160.543625,343.855621 157.457184,360.909058 
	C153.924271,380.429443 150.479248,399.965729 147.016571,419.498749 
	C146.872620,420.310852 146.937042,421.159943 146.874695,422.412354 
	C134.835175,422.199066 122.825363,421.565186 110.215820,420.899628 
	C113.096527,405.627747 116.038658,390.560791 118.760635,375.454163 
	C121.620277,359.583466 124.140305,343.651154 127.047035,327.789429 
	C129.832489,312.589508 133.019302,297.463440 135.851990,282.271759 
	C138.359756,268.822571 140.543823,255.313293 143.013931,241.856827 
	C146.245575,224.251907 149.729477,206.692902 152.899902,189.077255 
	C156.391022,169.679825 159.529221,150.218735 163.048096,130.826538 
	C165.807144,115.621727 169.014557,100.498680 171.832458,85.304016 
	C174.356995,71.691261 176.583450,58.023506 179.012222,44.392639 
	C181.296600,31.572086 183.557953,18.744169 186.190018,5.993926 
	C186.450821,4.730510 189.111588,3.572049 190.857819,3.095573 
	C193.602783,2.346596 196.517380,2.219275 199.180069,1.414363 
	C206.354248,1.000000 213.708496,1.000000 221.531372,0.999999 
z"/>
<path fill="#FFF" opacity="1.000000" stroke="none" 
	d="
M439.999817,471.000000 
	C463.990326,470.766693 487.128418,472.873779 509.512939,480.693848 
	C533.578369,489.101196 550.050476,511.469513 550.172363,537.033020 
	C550.263123,556.073792 546.092285,573.616516 535.678040,589.437805 
	C524.939697,605.751526 510.378845,617.407043 491.507385,623.299622 
	C487.436676,624.570679 483.436859,626.068726 479.742676,627.345337 
	C498.651398,654.872498 511.279999,685.281799 525.606567,716.000000 
	C522.593262,716.000000 520.807007,716.000000 519.020691,716.000000 
	C491.527588,716.000000 464.033264,715.865417 436.542542,716.122131 
	C431.502594,716.169189 429.410736,714.496643 427.696014,709.823364 
	C418.848175,685.710022 409.571655,661.753967 400.444702,637.743042 
	C400.009857,637.746521 399.575012,637.750000 399.140137,637.753479 
	C398.490692,639.767151 397.683075,641.744812 397.216125,643.799988 
	C392.086792,666.374939 387.018890,688.963928 381.907898,711.543152 
	C381.352142,713.998352 380.800293,716.098755 377.259644,716.077454 
	C351.267242,715.920898 325.273590,715.978638 299.280304,715.952820 
	C298.802765,715.952393 298.325378,715.755554 297.346313,715.539795 
	C297.346313,714.200867 297.077393,712.742188 297.385773,711.417969 
	C304.437927,681.134705 311.614044,650.880371 318.642059,620.591553 
	C328.809235,576.773438 338.876068,532.932129 348.993652,489.102478 
	C349.477600,487.006073 350.420837,484.939850 350.489716,482.837952 
	C350.683685,476.919189 354.467316,476.306885 359.183533,475.923950 
	C372.686157,474.827545 386.137543,473.016418 399.651886,472.171570 
	C412.907166,471.342926 426.215057,471.356201 439.999817,471.000000 
M460.994507,557.321228 
	C461.008179,556.488831 460.944519,555.646729 461.047089,554.825439 
	C462.437988,543.691040 457.969238,538.934875 451.696442,536.259949 
	C442.932983,532.522827 433.986572,532.657043 424.941010,534.307922 
	C423.771576,534.521362 422.329926,536.338989 422.012329,537.654480 
	C417.945129,554.499695 414.059875,571.388855 410.152527,588.163391 
	C426.260895,597.048157 454.503723,580.159180 460.994507,557.321228 
z"/>
<path fill="#9A999A" opacity="1.000000" stroke="none" 
	d="
M305.873810,354.224792 
	C299.437195,347.046265 292.709900,340.548157 287.067963,333.215027 
	C280.726898,324.973145 275.365570,315.977539 269.264099,306.839691 
	C253.197540,313.649933 236.743500,320.624420 219.309723,328.014191 
	C220.082840,318.321411 222.051208,309.422638 225.294464,300.308899 
	C236.485321,295.200317 247.181396,290.553101 257.688385,285.511780 
	C259.242157,284.766235 260.846161,282.128265 260.793762,280.415802 
	C260.650635,275.738342 259.218964,271.102997 259.045776,266.423279 
	C258.607422,254.579422 258.579041,242.720383 258.738373,231.001007 
	C259.351349,231.724716 259.776886,232.295288 259.849701,232.907791 
	C263.013794,259.525452 274.916443,282.051941 292.429321,301.838043 
	C310.605560,322.373535 332.656281,337.557770 357.549011,348.968140 
	C388.783447,363.285400 421.693207,370.530457 455.780090,371.738342 
	C471.746826,372.304169 487.860168,370.566254 503.822327,369.005798 
	C528.684204,366.575317 552.364807,359.176178 574.999146,348.929291 
	C603.533752,336.011261 628.584290,318.196014 647.633606,292.848877 
	C661.692017,274.142792 671.110291,253.515335 673.124451,229.896622 
	C673.185303,229.182648 674.098083,228.541336 674.775879,228.318726 
	C674.958679,236.934113 675.326416,245.114883 674.905396,253.254822 
	C674.457092,261.922089 673.642273,270.610046 672.304932,279.182434 
	C670.248047,292.366577 664.771179,304.388367 658.477722,316.047028 
	C658.477722,316.047028 658.153625,316.296417 657.850098,316.642639 
	C657.414551,317.651154 657.282593,318.313446 657.150696,318.975769 
	C648.410278,329.198822 640.088074,339.823364 630.789551,349.510712 
	C624.038635,356.544037 615.995728,362.337219 607.995300,369.136841 
	C621.712891,382.380615 635.627625,395.814850 650.043091,409.732483 
	C658.626648,400.762054 666.851135,392.120758 675.126038,383.528015 
	C696.382202,361.455383 717.683533,339.426270 738.925049,317.339539 
	C771.474548,283.494843 803.990784,249.618240 836.515930,215.750092 
	C840.781006,211.308899 845.014709,206.837646 849.548340,202.237091 
	C849.889160,211.252731 849.286316,220.481064 850.242676,229.544891 
	C850.832031,235.130295 848.501526,238.082932 845.089905,241.513596 
	C832.557129,254.116241 820.192505,266.887482 807.848999,279.676758 
	C791.952515,296.147339 776.138306,312.697388 760.286682,329.211334 
	C744.204407,345.965607 728.121521,362.719330 712.035522,379.469971 
	C703.877136,387.965332 695.672607,396.416718 687.557800,404.953400 
	C676.031982,417.078369 664.573425,429.267334 653.072571,441.416107 
	C652.177429,442.361725 651.175781,443.206543 650.118713,444.196503 
	C628.551147,423.465424 607.160217,402.904083 585.639771,382.218262 
	C566.745422,391.956482 546.871704,398.971008 526.139954,403.309509 
	C515.935059,405.445099 505.536957,406.848480 495.157257,407.905396 
	C484.178314,409.023285 473.101288,410.084900 462.095428,409.849121 
	C436.510162,409.301086 411.345764,405.686676 386.756897,398.112946 
	C363.674530,391.003296 342.089905,381.002716 322.389587,367.036591 
	C316.801666,363.075104 311.496826,358.714355 305.873810,354.224792 
z"/>
<path fill="#FFF" opacity="1.000000" stroke="none" 
	d="
M203.996201,648.026001 
	C210.011856,622.168213 216.020142,596.736633 221.944916,571.285706 
	C226.106934,553.406982 230.141113,535.498474 234.259079,517.609436 
	C237.152130,505.041565 240.202606,492.508453 242.938843,479.906830 
	C243.749329,476.174255 245.309464,474.872284 249.262772,474.902435 
	C274.420166,475.094177 299.579742,474.996704 324.738617,475.008575 
	C326.213318,475.009247 327.687958,475.132599 329.643921,475.220490 
	C329.643921,477.151093 329.976349,478.960236 329.594635,480.603485 
	C322.559418,510.888794 315.407043,541.146851 308.344391,571.425842 
	C299.629242,608.789368 290.950287,646.161438 282.308411,683.542053 
	C280.074097,693.206482 278.140686,702.941895 275.789459,712.576477 
	C275.462830,713.914734 273.528442,715.834656 272.327454,715.842712 
	C244.530716,716.027954 216.732498,715.985840 188.274704,715.985840 
	C193.577911,693.139893 198.765533,670.791931 203.996201,648.026001 
z"/>
<path fill="#FFF" opacity="1.000000" stroke="none" 
	d="
M901.877869,704.636841 
	C894.333435,716.165222 880.513611,718.661926 869.506409,710.736328 
	C860.522217,704.267212 859.242615,688.745117 867.059998,679.505066 
	C872.934753,672.561218 881.142578,671.566406 888.986877,673.440552 
	C896.851074,675.319519 902.544373,680.659546 904.101807,689.513428 
	C905.034363,694.814514 904.257996,699.598633 901.877869,704.636841 
M880.312561,711.212158 
	C882.719849,711.121460 885.227417,711.435242 887.516479,710.867676 
	C895.918030,708.784241 902.093140,699.800598 900.953918,691.741455 
	C899.749756,683.222107 891.527100,676.013794 883.006714,676.008118 
	C875.833557,676.003296 866.971863,683.254395 866.032104,689.897766 
	C864.502380,700.710449 869.406921,708.398315 880.312561,711.212158 
z"/>
<path fill="#FFFFFF" opacity="1.000000" stroke="none" 
	d="
M674.613647,227.866150 
	C674.098083,228.541336 673.185303,229.182648 673.124451,229.896622 
	C671.110291,253.515335 661.692017,274.142792 647.633606,292.848877 
	C628.584290,318.196014 603.533752,336.011261 574.999146,348.929291 
	C552.364807,359.176178 528.684204,366.575317 503.822327,369.005798 
	C487.860168,370.566254 471.746826,372.304169 455.780090,371.738342 
	C421.693207,370.530457 388.783447,363.285400 357.549011,348.968140 
	C332.656281,337.557770 310.605560,322.373535 292.429321,301.838043 
	C274.916443,282.051941 263.013794,259.525452 259.849701,232.907791 
	C259.776886,232.295288 259.351349,231.724716 258.712708,230.541321 
	C257.780243,215.734909 258.038300,201.574509 262.028046,187.779755 
	C265.402069,176.113785 269.657440,164.806107 277.176788,154.689972 
	C289.287231,165.828491 300.885742,177.259857 312.877228,188.262955 
	C316.353058,191.452332 316.744720,194.493515 315.723267,198.601700 
	C313.013275,209.500717 313.445679,220.327957 317.119263,231.372284 
	C320.841309,240.124207 324.474182,248.504471 328.081970,257.246735 
	C332.601105,263.039093 337.145264,268.469482 341.689423,273.899872 
	C358.601776,292.227844 379.784454,303.469727 404.009033,310.983337 
	C427.882538,318.500702 451.603241,320.973633 475.762939,320.003693 
	C479.069092,319.870972 482.423553,320.105652 485.675964,319.627899 
	C495.430725,318.194977 505.145966,316.493378 515.274048,314.900146 
	C524.466919,311.968506 533.262390,309.033356 542.057922,306.098206 
	C552.950317,300.308533 564.179810,295.057037 574.607056,288.524780 
	C580.734924,284.685913 585.587463,278.811188 591.331543,273.366760 
	C594.003479,270.182739 596.528015,267.612946 598.681458,264.762787 
	C606.962341,253.802826 614.200623,242.332977 615.760742,228.040833 
	C620.036865,214.991333 618.847351,201.980194 614.547119,189.599213 
	C611.026123,179.461685 605.519348,170.013885 600.692627,159.838074 
	C602.496582,157.749741 604.770508,154.910080 607.260193,152.274246 
	C614.657104,144.443054 622.102417,136.656494 629.624878,128.946167 
	C630.824585,127.716522 632.519043,126.969650 634.047363,126.333832 
	C644.097656,136.106766 652.168884,147.012909 659.004883,158.898453 
	C671.310242,180.293320 675.627380,203.470139 674.613647,227.866150 
z"/>
<path fill="#99999A" opacity="1.000000" stroke="none" 
	d="
M633.984680,125.999527 
	C632.519043,126.969650 630.824585,127.716522 629.624878,128.946167 
	C622.102417,136.656494 614.657104,144.443054 607.260193,152.274246 
	C604.770508,154.910080 602.496582,157.749741 600.692627,159.838074 
	C605.519348,170.013885 611.026123,179.461685 614.547119,189.599213 
	C618.847351,201.980194 620.036865,214.991333 615.546082,227.717163 
	C607.998413,209.034317 597.608459,193.060471 581.686401,180.647675 
	C577.811096,184.579880 574.145996,188.192505 570.599182,191.917816 
	C560.364807,202.667099 550.178223,213.461807 539.972900,224.238693 
	C534.172180,219.093094 528.371460,213.947495 521.984314,208.281693 
	C562.654724,165.909729 602.825867,124.057945 643.364441,81.823311 
	C685.447083,122.207718 727.300598,162.372238 769.773682,203.131271 
	C763.907349,208.953003 758.307129,214.510620 752.059570,219.984222 
	C736.449463,205.605438 721.434265,191.365067 706.539307,176.999939 
	C692.926697,163.871414 679.492920,150.557373 665.884766,137.424118 
	C658.502808,130.299652 650.921509,123.381683 644.329895,117.212624 
	C640.935303,120.095848 637.459961,123.047661 633.984680,125.999527 
z"/>
<path fill="#FFFFFF" opacity="1.000000" stroke="none" 
	d="
M329.186951,102.338860 
	C347.306641,90.970192 366.138306,81.299988 386.735077,75.826759 
	C400.083405,72.279678 413.691925,69.636192 427.274017,67.063744 
	C443.997894,63.896221 461.023163,63.009754 477.911560,64.223259 
	C494.055634,65.383286 510.209747,67.673676 526.090393,70.823624 
	C538.596924,73.304314 550.694214,77.848000 563.259155,81.764252 
	C556.050232,90.147491 548.577698,98.262657 541.048706,106.325081 
	C538.334229,109.231842 535.484131,112.011879 532.043701,114.833565 
	C515.433777,108.933052 498.776855,105.974892 481.954071,105.152199 
	C459.096008,104.034355 436.227966,104.674301 413.906006,110.988846 
	C395.766296,116.120277 378.343445,122.771851 362.878387,133.837860 
	C353.607849,125.193535 344.343719,116.542351 335.061615,107.910461 
	C333.146240,106.129257 331.164062,104.419930 329.186951,102.338860 
z"/>
<path fill="#000000" opacity="1.000000" stroke="none" 
	d="
M634.047241,126.333771 
	C637.459961,123.047661 640.935303,120.095848 644.329895,117.212624 
	C650.921509,123.381683 658.502808,130.299652 665.884766,137.424118 
	C679.492920,150.557373 692.926697,163.871414 706.539307,176.999939 
	C721.434265,191.365067 736.449463,205.605438 751.719727,220.069427 
	C744.259155,228.417953 736.532471,236.636856 728.713318,244.766830 
	C718.232971,255.663651 707.624207,266.437225 697.175171,277.363647 
	C685.371460,289.706665 673.692505,302.168945 661.925110,314.546814 
	C661.147156,315.365112 660.078735,315.907166 658.811523,316.312378 
	C664.771179,304.388367 670.248047,292.366577 672.304932,279.182434 
	C673.642273,270.610046 674.457092,261.922089 674.905396,253.254822 
	C675.326416,245.114883 674.958679,236.934113 674.775879,228.318726 
	C675.627380,203.470139 671.310242,180.293320 659.004883,158.898453 
	C652.168884,147.012909 644.097656,136.106766 634.047241,126.333771 
z"/>
<path fill="#9A999A" opacity="1.000000" stroke="none" 
	d="
M363.025146,134.154968 
	C378.343445,122.771851 395.766296,116.120277 413.906006,110.988846 
	C436.227966,104.674301 459.096008,104.034355 481.954071,105.152199 
	C498.776855,105.974892 515.433777,108.933052 531.738159,114.973923 
	C522.591736,125.045219 513.098755,134.959991 502.861511,144.948944 
	C493.171326,144.015259 484.248779,142.574478 475.274597,142.089935 
	C456.777374,141.091232 438.390869,142.966476 420.439972,147.231476 
	C409.660187,149.792648 399.352722,154.341965 388.833008,157.997772 
	C380.279327,150.155869 371.725616,142.313980 363.025146,134.154968 
z"/>
<path fill="#000000" opacity="1.000000" stroke="none" 
	d="
M388.985535,158.306702 
	C399.352722,154.341965 409.660187,149.792648 420.439972,147.231476 
	C438.390869,142.966476 456.777374,141.091232 475.274597,142.089935 
	C484.248779,142.574478 493.171326,144.015259 502.547729,145.087494 
	C496.307831,152.277176 489.731598,159.493576 482.947052,166.508499 
	C469.561066,180.349014 456.059692,194.077911 442.302734,208.009125 
	C424.378998,191.648743 406.758514,175.132172 388.985535,158.306702 
z"/>
<path fill="#000000" opacity="1.000000" stroke="none" 
	d="
M540.137512,224.514648 
	C550.178223,213.461807 560.364807,202.667099 570.599182,191.917816 
	C574.145996,188.192505 577.811096,184.579880 581.686401,180.647675 
	C597.608459,193.060471 607.998413,209.034317 615.171021,227.799744 
	C614.200623,242.332977 606.962341,253.802826 598.681458,264.762787 
	C596.528015,267.612946 594.003479,270.182739 591.331665,273.019714 
	C584.946228,267.542572 578.797363,262.011841 572.828613,256.293030 
	C561.930176,245.850983 551.138367,235.297577 540.137512,224.514648 
z"/>
<path fill="#99989A" opacity="1.000000" stroke="none" 
	d="
M541.781250,305.903961 
	C533.262390,309.033356 524.466919,311.968506 515.201233,314.581512 
	C502.154663,302.117706 489.578278,289.975983 477.001862,277.834290 
	C467.924347,268.913574 459.190033,259.602081 449.642548,251.216415 
	C443.768524,246.057251 441.102905,240.660782 441.862549,232.841690 
	C442.564758,225.613815 442.111786,218.273697 442.255066,210.533356 
	C475.396545,241.959015 508.450531,273.834351 541.781250,305.903961 
z"/>
<path fill="#000000" opacity="1.000000" stroke="none" 
	d="
M657.498840,318.762451 
	C657.282593,318.313446 657.414551,317.651154 657.795654,316.730042 
	C657.978821,317.163849 657.912903,317.856476 657.498840,318.762451 
z"/>
<path fill="#9B9899" opacity="1.000000" stroke="none" 
	d="
M317.030090,231.000610 
	C313.445679,220.327957 313.013275,209.500717 315.723267,198.601700 
	C316.744720,194.493515 316.353058,191.452332 312.877228,188.262955 
	C300.885742,177.259857 289.287231,165.828491 277.185852,154.350769 
	C270.275421,147.428955 263.718140,140.716599 257.160889,134.004257 
	C256.795685,133.273163 256.012573,132.465805 256.129913,131.822754 
	C257.304535,125.385620 258.627289,118.975517 260.140045,111.396759 
	C308.045990,155.998123 355.419647,200.103928 403.348724,244.726822 
	C382.624084,254.412521 362.378082,263.874542 341.910767,273.618225 
	C337.145264,268.469482 332.601105,263.039093 328.464233,257.293762 
	C341.547699,252.389542 354.223785,247.800339 367.657654,242.936783 
	C354.199158,230.021225 341.564789,217.896591 327.964111,204.844604 
	C324.084747,214.124680 320.557434,222.562653 317.030090,231.000610 
z"/>
<path fill="#000000" opacity="1.000000" stroke="none" 
	d="
M256.973572,134.361847 
	C263.718140,140.716599 270.275421,147.428955 276.823608,154.480499 
	C269.657440,164.806107 265.402069,176.113785 262.028046,187.779755 
	C258.038300,201.574509 257.780243,215.734909 258.360779,230.407745 
	C258.579041,242.720383 258.607422,254.579422 259.045776,266.423279 
	C259.218964,271.102997 260.650635,275.738342 260.793762,280.415802 
	C260.846161,282.128265 259.242157,284.766235 257.688385,285.511780 
	C247.181396,290.553101 236.485321,295.200317 225.488495,299.972656 
	C226.804474,290.195251 228.347763,280.394775 230.190125,270.650848 
	C233.362823,253.871124 236.722519,237.126724 240.002258,220.367233 
	C244.219528,198.816986 248.433304,177.266068 252.652969,155.716293 
	C254.023697,148.715958 255.408127,141.718307 256.973572,134.361847 
z"/>
<path fill="#000000" opacity="1.000000" stroke="none" 
	d="
M476.631927,277.912201 
	C489.578278,289.975983 502.154663,302.117706 514.803833,314.578003 
	C505.145966,316.493378 495.430725,318.194977 485.675964,319.627899 
	C482.423553,320.105652 479.069092,319.870972 475.762939,320.003693 
	C451.603241,320.973633 427.882538,318.500702 404.402832,310.911377 
	C415.755463,305.337097 427.459808,299.736450 439.270599,294.370178 
	C451.547485,288.792175 463.927246,283.440674 476.631927,277.912201 
z"/>
<path fill="#000000" opacity="1.000000" stroke="none" 
	d="
M460.981049,557.742432 
	C454.503723,580.159180 426.260895,597.048157 410.152527,588.163391 
	C414.059875,571.388855 417.945129,554.499695 422.012329,537.654480 
	C422.329926,536.338989 423.771576,534.521362 424.941010,534.307922 
	C433.986572,532.657043 442.932983,532.522827 451.696442,536.259949 
	C457.969238,538.934875 462.437988,543.691040 461.047089,554.825439 
	C460.944519,555.646729 461.008179,556.488831 460.981049,557.742432 
z"/>
<path fill="#000000" opacity="1.000000" stroke="none" 
	d="
M879.921570,711.134460 
	C869.406921,708.398315 864.502380,700.710449 866.032104,689.897766 
	C866.971863,683.254395 875.833557,676.003296 883.006714,676.008118 
	C891.527100,676.013794 899.749756,683.222107 900.953918,691.741455 
	C902.093140,699.800598 895.918030,708.784241 887.516479,710.867676 
	C885.227417,711.435242 882.719849,711.121460 879.921570,711.134460 
M892.039612,700.550110 
	C891.755615,698.808899 890.688965,696.676086 891.328918,695.397156 
	C893.583069,690.892273 893.570068,686.771362 890.565063,684.122192 
	C887.977966,681.841614 878.672302,681.050659 876.309021,682.996399 
	C875.733337,683.470337 875.108765,684.304688 875.099426,684.981506 
	C875.009155,691.545593 875.045105,698.111389 875.045105,704.559265 
	C879.295349,705.352905 882.542358,705.792358 882.625671,700.118896 
	C884.983582,706.188599 889.188599,705.350159 893.955383,704.546631 
	C893.368591,703.165466 892.936157,702.147522 892.039612,700.550110 
z"/>
<path fill="#000000" opacity="1.000000" stroke="none" 
	d="
M317.119263,231.372284 
	C320.557434,222.562653 324.084747,214.124680 327.964111,204.844604 
	C341.564789,217.896591 354.199158,230.021225 367.657654,242.936783 
	C354.223785,247.800339 341.547699,252.389542 328.489319,256.931763 
	C324.474182,248.504471 320.841309,240.124207 317.119263,231.372284 
z"/>
<path fill="#FFF" opacity="1.000000" stroke="none" 
	d="
M892.271606,700.839844 
	C892.936157,702.147522 893.368591,703.165466 893.955383,704.546631 
	C889.188599,705.350159 884.983582,706.188599 882.625671,700.118896 
	C882.542358,705.792358 879.295349,705.352905 875.045105,704.559265 
	C875.045105,698.111389 875.009155,691.545593 875.099426,684.981506 
	C875.108765,684.304688 875.733337,683.470337 876.309021,682.996399 
	C878.672302,681.050659 887.977966,681.841614 890.565063,684.122192 
	C893.570068,686.771362 893.583069,690.892273 891.328918,695.397156 
	C890.688965,696.676086 891.755615,698.808899 892.271606,700.839844 
z"/>
</svg>