<svg version="1.1" id="Layer_1" xmlns="http://www.w3.org/2000/svg" xmlns:xlink="http://www.w3.org/1999/xlink" x="0px" y="0px"
	 width="100%" fill="none" viewBox="0 0 1080 1080" enable-background="new 0 0 1080 1080" xml:space="preserve">
<path fill="none" opacity="1.000000" stroke="none" 
	d="
M711.000000,1081.000000 
	C474.027283,1081.000000 237.554581,1081.000000 1.040936,1081.000000 
	C1.040936,721.068848 1.040936,361.137665 1.040936,1.103249 
	C360.889587,1.103249 720.779175,1.103249 1080.834473,1.103249 
	C1080.834473,360.999939 1080.834473,720.999939 1080.834473,1081.000000 
	C957.803894,1081.000000 834.651917,1081.000000 711.000000,1081.000000 
M216.999771,801.546570 
	C218.531906,811.760864 220.237747,821.953308 221.521332,832.198792 
	C222.142776,837.159241 224.001343,841.389282 227.414871,844.814514 
	C232.090515,849.506104 236.935043,854.050537 241.944962,858.383057 
	C250.167267,865.493591 258.432465,872.570496 266.953735,879.315247 
	C276.156555,886.599548 285.697357,893.455750 295.046143,900.557312 
	C301.059570,905.125183 306.915466,909.902771 312.978333,914.402588 
	C324.042145,922.613892 335.227386,930.661499 346.323761,938.829224 
	C355.813080,945.814026 365.056122,953.152344 374.763916,959.815918 
	C384.076691,966.208313 393.883392,971.877258 403.405945,977.969116 
	C412.734283,983.936523 421.862762,990.223083 431.284637,996.036255 
	C447.282257,1005.906433 463.197754,1015.952209 479.610382,1025.093628 
	C492.542603,1032.296631 506.131989,1038.332031 519.523804,1044.687134 
	C522.133789,1045.925781 525.136292,1046.580933 528.028076,1046.941650 
	C544.618408,1049.011597 559.977234,1044.772705 574.486389,1037.114258 
	C587.492126,1030.249512 600.421570,1023.221375 613.164368,1015.882690 
	C625.474487,1008.793091 637.646423,1001.438599 649.612793,993.784241 
	C660.267395,986.968933 670.558228,979.584961 681.008423,972.450195 
	C690.018677,966.298584 699.068909,960.204346 708.025452,953.975525 
	C718.765381,946.506287 729.536865,939.074524 740.090393,931.347534 
	C753.326172,921.656738 766.376770,911.712036 779.465271,901.821350 
	C789.625549,894.143677 799.985352,886.699097 809.781189,878.577698 
	C822.860474,867.734253 835.563232,856.429077 848.217285,845.087463 
	C850.417786,843.115112 852.401550,840.176208 853.065735,837.350098 
	C855.083679,828.764099 856.800232,820.063477 857.882446,811.314453 
	C858.861145,803.401672 858.828430,795.365356 859.282288,787.385803 
	C860.173462,771.719360 861.196655,756.059631 861.950012,740.386719 
	C862.256104,734.017822 861.870544,727.618530 862.038086,721.239319 
	C862.194275,715.292480 862.888062,709.356506 862.954712,703.411316 
	C863.100891,690.367859 863.129089,677.320007 862.961182,664.277039 
	C862.813843,652.833069 862.365967,641.392334 861.992737,629.952026 
	C861.354919,610.401733 860.762451,590.849182 859.973877,571.304749 
	C859.487427,559.247009 859.075562,547.162659 857.890198,535.163391 
	C856.747864,523.600525 854.836853,512.100342 852.867798,500.640625 
	C852.273926,497.184418 851.248108,493.011566 848.890747,490.789673 
	C839.930786,482.344910 830.380737,474.521820 820.974182,466.557343 
	C817.466064,463.587036 813.737061,460.878448 810.125366,458.029480 
	C801.231812,451.014130 792.343384,443.992249 783.461731,436.961914 
	C778.045410,432.674591 772.774719,428.190033 767.207703,424.109192 
	C758.647461,417.834198 749.846802,411.888458 741.225403,405.695435 
	C731.673828,398.834167 722.305359,391.714905 712.680603,384.959625 
	C702.451355,377.780121 692.040710,370.857330 681.662537,363.892212 
	C668.686951,355.183868 655.829468,346.283630 642.614990,337.951569 
	C628.943665,329.331451 615.067749,321.004517 600.977722,313.089752 
	C589.475403,306.628540 577.751160,300.452789 565.692200,295.132141 
	C558.167297,291.811981 549.971802,289.220154 541.841919,288.226257 
	C524.503418,286.106567 509.852570,295.133118 494.851135,301.854218 
	C487.417938,305.184509 480.548492,309.779541 473.448792,313.845795 
	C467.644836,317.169891 461.881012,320.564026 456.093414,323.916809 
	C446.216431,329.638489 436.145233,335.052063 426.501282,341.142426 
	C413.464874,349.375153 400.626862,357.939667 387.941956,366.706451 
	C375.732941,375.144348 363.831390,384.026886 351.786499,392.702667 
	C344.767212,397.758514 337.650513,402.683258 330.722992,407.861420 
	C320.730347,415.330627 310.800751,422.888306 300.975342,430.575775 
	C293.594727,436.350433 286.505524,442.497437 279.128265,448.276550 
	C272.804779,453.230164 266.118835,457.724304 259.842621,462.734161 
	C251.899246,469.074860 244.033127,475.536285 236.466415,482.317017 
	C230.823669,487.373596 224.220230,491.844849 223.015610,500.378540 
	C221.114502,513.846191 218.481781,527.233276 217.145599,540.752014 
	C215.554184,556.853210 214.703781,573.045898 214.084320,589.220093 
	C213.397690,607.147339 213.034668,625.099121 213.071564,643.039124 
	C213.124542,668.812622 213.722565,694.584717 213.948090,720.358582 
	C213.988373,724.963562 212.932877,729.591248 213.116730,734.179077 
	C213.459915,742.742493 214.475494,751.276733 214.967987,759.837036 
	C215.749893,773.427673 216.332031,787.029907 216.999771,801.546570 
M975.499878,31.000000 
	C957.258118,30.363047 939.121948,31.526169 921.042053,33.975117 
	C915.981140,34.660622 910.705627,34.176983 905.770691,35.296864 
	C892.110352,38.396790 878.348694,41.356773 865.056213,45.688953 
	C850.483093,50.438541 836.424683,56.775826 823.443726,65.108940 
	C810.343750,73.518463 798.066101,82.807373 787.577820,94.609566 
	C778.757019,104.535484 771.067505,115.149963 765.219299,126.856857 
	C755.263855,146.785690 750.059509,168.254120 746.968750,190.285614 
	C743.645569,213.973984 735.397156,235.621841 720.264465,254.530807 
	C709.481201,268.004974 696.025818,276.503998 679.226746,280.539001 
	C665.876343,283.745667 653.073853,280.356659 640.059021,279.072815 
	C636.200378,278.692230 632.358582,278.141327 627.393921,277.531464 
	C628.142517,281.035614 628.132935,283.606812 629.206421,285.592560 
	C636.331421,298.772736 645.300415,310.448090 656.148987,320.960175 
	C666.102966,330.605499 677.693970,337.376740 690.341858,341.682220 
	C704.858826,346.623993 720.291931,345.619812 735.480347,344.253601 
	C750.801697,342.875397 764.428406,336.473022 777.743225,329.509888 
	C784.745239,325.848145 790.912842,320.617828 797.817444,316.736664 
	C809.795471,310.003723 816.839600,299.277222 821.903625,287.227417 
	C827.587708,273.702179 832.205444,259.732788 837.511902,246.043762 
	C843.303345,231.103378 849.075256,216.144180 855.382568,201.418884 
	C859.886230,190.904449 864.471924,180.275833 870.459167,170.586838 
	C876.851135,160.242905 885.038208,151.020279 892.245544,141.164780 
	C898.849243,132.134903 907.113098,124.836250 916.458923,119.018875 
	C927.822388,111.945580 939.521545,105.320251 951.499268,99.351524 
	C962.915161,93.662773 971.649414,85.392204 978.961060,75.231575 
	C984.228027,67.912491 989.686096,60.731209 995.011719,53.453930 
	C998.082153,49.258228 1001.477905,45.224716 1003.969788,40.700974 
	C1006.955872,35.280018 1005.236572,32.399734 999.312561,32.024433 
	C991.717102,31.543247 984.104797,31.329165 975.499878,31.000000 
M901.944885,314.507324 
	C887.243286,321.907196 872.391907,329.027222 857.883179,336.787689 
	C844.058472,344.182251 830.576416,352.219452 816.971313,360.022186 
	C806.241699,366.175781 795.496460,372.307312 784.915222,378.708282 
	C783.475769,379.579132 782.104797,381.975800 782.135681,383.639404 
	C782.366577,396.081604 790.861450,403.367798 799.653992,410.189575 
	C809.232178,417.620911 820.878540,420.358185 832.335938,422.970428 
	C840.128540,424.747070 848.241028,425.566528 856.244629,425.850311 
	C864.831726,426.154785 873.462708,425.404633 882.065796,424.949890 
	C884.312134,424.831116 886.613953,424.350250 888.739258,423.605042 
	C896.612976,420.844116 904.687622,418.456177 912.185242,414.877533 
	C919.982483,411.155975 927.983337,407.136810 934.480164,401.590363 
	C943.468933,393.916534 951.183350,384.739014 959.354797,376.121307 
	C969.764832,365.142883 980.377502,354.336395 990.359009,342.977905 
	C999.282837,332.822968 1008.118408,322.466492 1015.765198,311.354126 
	C1021.441956,303.104675 1025.764526,293.749817 1029.535522,284.420563 
	C1032.274780,277.643524 1028.838501,271.006897 1023.232117,270.259674 
	C1011.580017,268.706787 1000.075012,270.806000 989.223083,274.589569 
	C976.876770,278.894104 965.028137,284.652069 953.045776,289.964630 
	C946.161682,293.016785 939.447876,296.451904 932.645752,299.690216 
	C922.602539,304.471588 912.549011,309.231201 901.944885,314.507324 
z"/>
<path fill="#2163B0" opacity="1.000000" stroke="none" 
	d="
M216.999222,801.086914 
	C216.332031,787.029907 215.749893,773.427673 214.967987,759.837036 
	C214.475494,751.276733 213.459915,742.742493 213.116730,734.179077 
	C212.932877,729.591248 213.988373,724.963562 213.948090,720.358582 
	C213.722565,694.584717 213.124542,668.812622 213.071564,643.039124 
	C213.034668,625.099121 213.397690,607.147339 214.084320,589.220093 
	C214.703781,573.045898 215.554184,556.853210 217.145599,540.752014 
	C218.481781,527.233276 221.114502,513.846191 223.015610,500.378540 
	C224.220230,491.844849 230.823669,487.373596 236.466415,482.317017 
	C244.033127,475.536285 251.899246,469.074860 259.842621,462.734161 
	C266.118835,457.724304 272.804779,453.230164 279.128265,448.276550 
	C286.505524,442.497437 293.594727,436.350433 300.975342,430.575775 
	C310.800751,422.888306 320.730347,415.330627 330.722992,407.861420 
	C337.650513,402.683258 344.767212,397.758514 351.786499,392.702667 
	C363.831390,384.026886 375.732941,375.144348 387.941956,366.706451 
	C400.626862,357.939667 413.464874,349.375153 426.501282,341.142426 
	C436.145233,335.052063 446.216431,329.638489 456.093414,323.916809 
	C461.881012,320.564026 467.644836,317.169891 473.448792,313.845795 
	C480.548492,309.779541 487.417938,305.184509 494.851135,301.854218 
	C509.852570,295.133118 524.503418,286.106567 541.841919,288.226257 
	C549.971802,289.220154 558.167297,291.811981 565.692200,295.132141 
	C577.751160,300.452789 589.475403,306.628540 600.977722,313.089752 
	C615.067749,321.004517 628.943665,329.331451 642.614990,337.951569 
	C655.829468,346.283630 668.686951,355.183868 681.662537,363.892212 
	C692.040710,370.857330 702.451355,377.780121 712.680603,384.959625 
	C722.305359,391.714905 731.673828,398.834167 741.225403,405.695435 
	C749.846802,411.888458 758.647461,417.834198 767.207703,424.109192 
	C772.774719,428.190033 778.045410,432.674591 783.461731,436.961914 
	C792.343384,443.992249 801.231812,451.014130 810.125366,458.029480 
	C813.737061,460.878448 817.466064,463.587036 820.974182,466.557343 
	C830.380737,474.521820 839.930786,482.344910 848.890747,490.789673 
	C851.248108,493.011566 852.273926,497.184418 852.867798,500.640625 
	C854.836853,512.100342 856.747864,523.600525 857.890198,535.163391 
	C859.075562,547.162659 859.487427,559.247009 859.973877,571.304749 
	C860.762451,590.849182 861.354919,610.401733 861.992737,629.952026 
	C862.365967,641.392334 862.813843,652.833069 862.961182,664.277039 
	C863.129089,677.320007 863.100891,690.367859 862.954712,703.411316 
	C862.888062,709.356506 862.194275,715.292480 862.038086,721.239319 
	C861.870544,727.618530 862.256104,734.017822 861.950012,740.386719 
	C861.196655,756.059631 860.173462,771.719360 859.282288,787.385803 
	C858.828430,795.365356 858.861145,803.401672 857.882446,811.314453 
	C856.800232,820.063477 855.083679,828.764099 853.065735,837.350098 
	C852.401550,840.176208 850.417786,843.115112 848.217285,845.087463 
	C835.563232,856.429077 822.860474,867.734253 809.781189,878.577698 
	C799.985352,886.699097 789.625549,894.143677 779.465271,901.821350 
	C766.376770,911.712036 753.326172,921.656738 740.090393,931.347534 
	C729.536865,939.074524 718.765381,946.506287 708.025452,953.975525 
	C699.068909,960.204346 690.018677,966.298584 681.008423,972.450195 
	C670.558228,979.584961 660.267395,986.968933 649.612793,993.784241 
	C637.646423,1001.438599 625.474487,1008.793091 613.164368,1015.882690 
	C600.421570,1023.221375 587.492126,1030.249512 574.486389,1037.114258 
	C559.977234,1044.772705 544.618408,1049.011597 528.028076,1046.941650 
	C525.136292,1046.580933 522.133789,1045.925781 519.523804,1044.687134 
	C506.131989,1038.332031 492.542603,1032.296631 479.610382,1025.093628 
	C463.197754,1015.952209 447.282257,1005.906433 431.284637,996.036255 
	C421.862762,990.223083 412.734283,983.936523 403.405945,977.969116 
	C393.883392,971.877258 384.076691,966.208313 374.763916,959.815918 
	C365.056122,953.152344 355.813080,945.814026 346.323761,938.829224 
	C335.227386,930.661499 324.042145,922.613892 312.978333,914.402588 
	C306.915466,909.902771 301.059570,905.125183 295.046143,900.557312 
	C285.697357,893.455750 276.156555,886.599548 266.953735,879.315247 
	C258.432465,872.570496 250.167267,865.493591 241.944962,858.383057 
	C236.935043,854.050537 232.090515,849.506104 227.414871,844.814514 
	C224.001343,841.389282 222.142776,837.159241 221.521332,832.198792 
	C220.237747,821.953308 218.531906,811.760864 216.999222,801.086914 
M266.001282,586.274658 
	C266.031372,591.152222 265.744232,596.057190 266.162598,600.901184 
	C266.868744,609.077515 268.142181,617.203186 268.960205,625.371887 
	C270.387665,639.625977 271.544098,653.907532 273.011505,668.157288 
	C274.543793,683.037598 276.137268,697.915710 278.014832,712.755493 
	C280.528595,732.623474 283.156494,752.481506 286.146362,772.281799 
	C286.966705,777.714539 287.093750,783.909607 292.788483,787.373291 
	C296.963318,789.912476 301.162872,792.411926 305.377533,794.884583 
	C314.547516,800.264587 323.672119,805.726135 332.930359,810.950378 
	C343.600555,816.971436 354.441315,822.689819 365.123505,828.690125 
	C379.193298,836.593323 393.117737,844.756836 407.236176,852.570862 
	C412.542816,855.507996 418.564362,857.240356 423.633026,860.497559 
	C429.454681,864.238647 434.684967,864.010803 440.585785,861.162476 
	C450.161804,856.540222 459.901672,852.257568 469.568848,847.823914 
	C470.017883,847.617859 470.410492,847.280762 470.867310,847.101013 
	C479.974091,843.518250 489.244263,840.300537 498.158478,836.291077 
	C509.728210,831.087158 521.907959,828.969360 534.352905,828.046753 
	C553.585938,826.620850 571.261780,833.203430 588.585571,840.083740 
	C604.842712,846.540466 620.509094,854.483398 636.445068,861.751160 
	C640.744995,863.712219 645.126099,864.289673 649.544312,862.111023 
	C656.757568,858.554138 664.041748,855.128113 671.139099,851.351929 
	C679.181824,847.072815 687.040222,842.448181 694.999329,838.010864 
	C708.108276,830.702393 721.299011,823.537964 734.334106,816.100525 
	C747.559570,808.554382 760.280579,800.026978 773.899658,793.300476 
	C783.913757,788.354553 789.194580,781.748962 790.143372,770.614990 
	C791.243713,757.702759 793.427429,744.884094 795.089417,732.018188 
	C797.087646,716.549683 799.171509,701.090271 800.951904,685.596313 
	C802.211121,674.637878 802.907410,663.615906 804.071838,652.645264 
	C805.598816,638.258972 807.803711,623.929504 808.864990,609.512939 
	C810.068237,593.168945 810.488525,576.759766 810.919006,560.370239 
	C811.083435,554.107971 810.477234,547.809753 809.956238,541.550049 
	C809.507751,536.161255 808.945923,530.754517 807.953186,525.445618 
	C806.770996,519.123413 803.665283,518.239990 798.867249,522.666748 
	C792.772705,528.289612 786.714233,533.956543 780.786743,539.754272 
	C773.162292,547.211975 765.562500,554.702576 758.178162,562.395935 
	C751.814697,569.025574 745.877380,576.062866 739.556091,582.734680 
	C729.369995,593.485535 718.998230,604.060242 708.758240,614.760437 
	C705.504456,618.160461 702.569702,621.873962 699.224976,625.176758 
	C693.857666,630.476807 688.117554,635.402771 682.810608,640.759766 
	C673.809937,649.845398 665.134827,659.253967 656.111511,668.316345 
	C649.262207,675.195190 642.136536,681.802734 635.041992,688.432739 
	C620.944946,701.606567 606.837952,714.770935 592.619690,727.813354 
	C588.010864,732.041016 583.257568,736.177368 578.180054,739.809998 
	C572.517029,743.861633 566.163086,746.955505 560.549011,751.065918 
	C550.115356,758.705139 538.597229,759.938538 526.737549,756.602539 
	C521.403137,755.101990 516.677856,751.304199 511.801178,748.342957 
	C506.258789,744.977478 500.460327,741.864929 495.478149,737.782166 
	C486.226318,730.200562 477.449554,722.035278 468.544312,714.035828 
	C460.913391,707.180847 453.351318,700.248352 445.811920,693.292542 
	C440.266632,688.176453 434.792542,682.982788 429.313324,677.795532 
	C422.686310,671.521667 415.888977,665.411255 409.529083,658.876160 
	C402.436768,651.588318 395.834229,643.826660 388.869873,636.410828 
	C381.085724,628.122070 373.109924,620.013672 365.268402,611.778259 
	C362.023224,608.370117 359.033142,604.713379 355.709686,601.386841 
	C349.914215,595.585815 343.793427,590.104858 338.094513,584.213623 
	C329.889221,575.731323 322.045837,566.898926 313.837708,558.419495 
	C309.406738,553.842102 304.444946,549.783447 299.888153,545.321716 
	C292.090515,537.686951 284.566010,529.768188 276.643097,522.268433 
	C272.384338,518.237122 268.782959,519.366882 268.112396,525.076965 
	C266.730347,536.844971 265.619568,548.673706 265.130035,560.507751 
	C264.788879,568.754761 265.666870,577.052246 266.001282,586.274658 
z"/>
<path fill="#2163B0" opacity="1.000000" stroke="none" 
	d="
M975.999817,31.000000 
	C984.104797,31.329165 991.717102,31.543247 999.312561,32.024433 
	C1005.236572,32.399734 1006.955872,35.280018 1003.969788,40.700974 
	C1001.477905,45.224716 998.082153,49.258228 995.011719,53.453930 
	C989.686096,60.731209 984.228027,67.912491 978.961060,75.231575 
	C971.649414,85.392204 962.915161,93.662773 951.499268,99.351524 
	C939.521545,105.320251 927.822388,111.945580 916.458923,119.018875 
	C907.113098,124.836250 898.849243,132.134903 892.245544,141.164780 
	C885.038208,151.020279 876.851135,160.242905 870.459167,170.586838 
	C864.471924,180.275833 859.886230,190.904449 855.382568,201.418884 
	C849.075256,216.144180 843.303345,231.103378 837.511902,246.043762 
	C832.205444,259.732788 827.587708,273.702179 821.903625,287.227417 
	C816.839600,299.277222 809.795471,310.003723 797.817444,316.736664 
	C790.912842,320.617828 784.745239,325.848145 777.743225,329.509888 
	C764.428406,336.473022 750.801697,342.875397 735.480347,344.253601 
	C720.291931,345.619812 704.858826,346.623993 690.341858,341.682220 
	C677.693970,337.376740 666.102966,330.605499 656.148987,320.960175 
	C645.300415,310.448090 636.331421,298.772736 629.206421,285.592560 
	C628.132935,283.606812 628.142517,281.035614 627.393921,277.531464 
	C632.358582,278.141327 636.200378,278.692230 640.059021,279.072815 
	C653.073853,280.356659 665.876343,283.745667 679.226746,280.539001 
	C696.025818,276.503998 709.481201,268.004974 720.264465,254.530807 
	C735.397156,235.621841 743.645569,213.973984 746.968750,190.285614 
	C750.059509,168.254120 755.263855,146.785690 765.219299,126.856857 
	C771.067505,115.149963 778.757019,104.535484 787.577820,94.609566 
	C798.066101,82.807373 810.343750,73.518463 823.443726,65.108940 
	C836.424683,56.775826 850.483093,50.438541 865.056213,45.688953 
	C878.348694,41.356773 892.110352,38.396790 905.770691,35.296864 
	C910.705627,34.176983 915.981140,34.660622 921.042053,33.975117 
	C939.121948,31.526169 957.258118,30.363047 975.999817,31.000000 
z"/>
<path fill="#2163B0" opacity="1.000000" stroke="none" 
	d="
M902.222412,314.253723 
	C912.549011,309.231201 922.602539,304.471588 932.645752,299.690216 
	C939.447876,296.451904 946.161682,293.016785 953.045776,289.964630 
	C965.028137,284.652069 976.876770,278.894104 989.223083,274.589569 
	C1000.075012,270.806000 1011.580017,268.706787 1023.232117,270.259674 
	C1028.838501,271.006897 1032.274780,277.643524 1029.535522,284.420563 
	C1025.764526,293.749817 1021.441956,303.104675 1015.765198,311.354126 
	C1008.118408,322.466492 999.282837,332.822968 990.359009,342.977905 
	C980.377502,354.336395 969.764832,365.142883 959.354797,376.121307 
	C951.183350,384.739014 943.468933,393.916534 934.480164,401.590363 
	C927.983337,407.136810 919.982483,411.155975 912.185242,414.877533 
	C904.687622,418.456177 896.612976,420.844116 888.739258,423.605042 
	C886.613953,424.350250 884.312134,424.831116 882.065796,424.949890 
	C873.462708,425.404633 864.831726,426.154785 856.244629,425.850311 
	C848.241028,425.566528 840.128540,424.747070 832.335938,422.970428 
	C820.878540,420.358185 809.232178,417.620911 799.653992,410.189575 
	C790.861450,403.367798 782.366577,396.081604 782.135681,383.639404 
	C782.104797,381.975800 783.475769,379.579132 784.915222,378.708282 
	C795.496460,372.307312 806.241699,366.175781 816.971313,360.022186 
	C830.576416,352.219452 844.058472,344.182251 857.883179,336.787689 
	C872.391907,329.027222 887.243286,321.907196 902.222412,314.253723 
z"/>
<path opacity="1.000000" fill="none" stroke="none" 
	d="
M266.000793,585.800903 
	C265.666870,577.052246 264.788879,568.754761 265.130035,560.507751 
	C265.619568,548.673706 266.730347,536.844971 268.112396,525.076965 
	C268.782959,519.366882 272.384338,518.237122 276.643097,522.268433 
	C284.566010,529.768188 292.090515,537.686951 299.888153,545.321716 
	C304.444946,549.783447 309.406738,553.842102 313.837708,558.419495 
	C322.045837,566.898926 329.889221,575.731323 338.094513,584.213623 
	C343.793427,590.104858 349.914215,595.585815 355.709686,601.386841 
	C359.033142,604.713379 362.023224,608.370117 365.268402,611.778259 
	C373.109924,620.013672 381.085724,628.122070 388.869873,636.410828 
	C395.834229,643.826660 402.436768,651.588318 409.529083,658.876160 
	C415.888977,665.411255 422.686310,671.521667 429.313324,677.795532 
	C434.792542,682.982788 440.266632,688.176453 445.811920,693.292542 
	C453.351318,700.248352 460.913391,707.180847 468.544312,714.035828 
	C477.449554,722.035278 486.226318,730.200562 495.478149,737.782166 
	C500.460327,741.864929 506.258789,744.977478 511.801178,748.342957 
	C516.677856,751.304199 521.403137,755.101990 526.737549,756.602539 
	C538.597229,759.938538 550.115356,758.705139 560.549011,751.065918 
	C566.163086,746.955505 572.517029,743.861633 578.180054,739.809998 
	C583.257568,736.177368 588.010864,732.041016 592.619690,727.813354 
	C606.837952,714.770935 620.944946,701.606567 635.041992,688.432739 
	C642.136536,681.802734 649.262207,675.195190 656.111511,668.316345 
	C665.134827,659.253967 673.809937,649.845398 682.810608,640.759766 
	C688.117554,635.402771 693.857666,630.476807 699.224976,625.176758 
	C702.569702,621.873962 705.504456,618.160461 708.758240,614.760437 
	C718.998230,604.060242 729.369995,593.485535 739.556091,582.734680 
	C745.877380,576.062866 751.814697,569.025574 758.178162,562.395935 
	C765.562500,554.702576 773.162292,547.211975 780.786743,539.754272 
	C786.714233,533.956543 792.772705,528.289612 798.867249,522.666748 
	C803.665283,518.239990 806.770996,519.123413 807.953186,525.445618 
	C808.945923,530.754517 809.507751,536.161255 809.956238,541.550049 
	C810.477234,547.809753 811.083435,554.107971 810.919006,560.370239 
	C810.488525,576.759766 810.068237,593.168945 808.864990,609.512939 
	C807.803711,623.929504 805.598816,638.258972 804.071838,652.645264 
	C802.907410,663.615906 802.211121,674.637878 800.951904,685.596313 
	C799.171509,701.090271 797.087646,716.549683 795.089417,732.018188 
	C793.427429,744.884094 791.243713,757.702759 790.143372,770.614990 
	C789.194580,781.748962 783.913757,788.354553 773.899658,793.300476 
	C760.280579,800.026978 747.559570,808.554382 734.334106,816.100525 
	C721.299011,823.537964 708.108276,830.702393 694.999329,838.010864 
	C687.040222,842.448181 679.181824,847.072815 671.139099,851.351929 
	C664.041748,855.128113 656.757568,858.554138 649.544312,862.111023 
	C645.126099,864.289673 640.744995,863.712219 636.445068,861.751160 
	C620.509094,854.483398 604.842712,846.540466 588.585571,840.083740 
	C571.261780,833.203430 553.585938,826.620850 534.352905,828.046753 
	C521.907959,828.969360 509.728210,831.087158 498.158478,836.291077 
	C489.244263,840.300537 479.974091,843.518250 470.867310,847.101013 
	C470.410492,847.280762 470.017883,847.617859 469.568848,847.823914 
	C459.901672,852.257568 450.161804,856.540222 440.585785,861.162476 
	C434.684967,864.010803 429.454681,864.238647 423.633026,860.497559 
	C418.564362,857.240356 412.542816,855.507996 407.236176,852.570862 
	C393.117737,844.756836 379.193298,836.593323 365.123505,828.690125 
	C354.441315,822.689819 343.600555,816.971436 332.930359,810.950378 
	C323.672119,805.726135 314.547516,800.264587 305.377533,794.884583 
	C301.162872,792.411926 296.963318,789.912476 292.788483,787.373291 
	C287.093750,783.909607 286.966705,777.714539 286.146362,772.281799 
	C283.156494,752.481506 280.528595,732.623474 278.014832,712.755493 
	C276.137268,697.915710 274.543793,683.037598 273.011505,668.157288 
	C271.544098,653.907532 270.387665,639.625977 268.960205,625.371887 
	C268.142181,617.203186 266.868744,609.077515 266.162598,600.901184 
	C265.744232,596.057190 266.031372,591.152222 266.000793,585.800903 
M424.001892,730.502502 
	C419.531403,726.018555 414.976410,721.615173 410.608612,717.033264 
	C402.393921,708.416077 394.282990,699.699890 386.137024,691.017151 
	C379.528107,683.972717 372.921967,676.925659 366.332092,669.863403 
	C362.199127,665.434204 358.168488,660.907410 353.964203,656.547546 
	C349.568848,651.989624 345.006470,647.593262 340.544495,643.098999 
	C337.895447,640.430847 335.473999,636.440918 331.151672,638.218872 
	C328.659210,639.244080 326.826965,642.184998 325.020264,644.513916 
	C316.058838,656.065552 310.814575,669.531311 306.107605,683.125305 
	C301.925934,695.202393 302.184784,708.015808 303.310730,720.479126 
	C303.925537,727.284729 303.706635,734.755493 308.356842,740.899048 
	C313.398315,747.559692 317.015503,755.690430 323.116180,761.066833 
	C332.580811,769.407898 342.754181,777.260864 355.291687,781.184082 
	C364.155060,783.957581 372.598511,788.142639 381.529449,790.613037 
	C392.551239,793.661865 403.815338,796.001282 415.103302,797.871094 
	C424.980316,799.507080 435.024200,800.195068 445.014404,801.073303 
	C457.494812,802.170471 469.991669,803.096558 482.493622,803.909668 
	C483.885834,804.000122 486.446259,803.061340 486.581848,802.275085 
	C486.946991,800.157227 487.096924,797.198364 485.903107,795.756958 
	C481.140533,790.006165 475.928680,784.613342 470.705872,779.261047 
	C463.315582,771.687622 455.638031,764.391968 448.323608,756.747559 
	C440.242279,748.301697 432.432404,739.596008 424.001892,730.502502 
M745.913330,638.066956 
	C742.410095,637.559143 739.629395,638.402344 737.117493,641.262024 
	C730.457581,648.844055 723.588013,656.249695 716.614258,663.546204 
	C709.356262,671.140137 701.885010,678.530518 694.494934,685.998047 
	C690.555420,689.978821 686.489502,693.839539 682.654541,697.917969 
	C668.579285,712.886780 654.687317,728.029541 640.507446,742.898010 
	C631.354187,752.495789 621.690186,761.605530 612.495117,771.164795 
	C604.965942,778.992126 597.647217,787.037231 590.587341,795.287109 
	C589.253479,796.845947 589.150208,799.860962 589.366821,802.118835 
	C589.439941,802.881042 592.293579,803.984558 593.817017,803.897156 
	C601.546143,803.453552 609.267395,802.782654 616.969788,801.982483 
	C635.604797,800.046570 654.313416,798.572510 672.831970,795.829163 
	C691.827820,793.015015 710.120667,786.973938 727.359985,778.612671 
	C739.094482,772.921204 750.052490,765.487122 758.410645,755.054260 
	C766.788818,744.596252 772.535706,732.978943 772.982849,719.284851 
	C773.529724,702.535156 772.643311,686.149292 765.173828,670.498413 
	C759.801208,659.241150 754.569641,648.040344 745.913330,638.066956 
z"/>
<path fill="#2163B0" opacity="1.000000" stroke="none" 
	d="
M424.253113,730.752991 
	C432.432404,739.596008 440.242279,748.301697 448.323608,756.747559 
	C455.638031,764.391968 463.315582,771.687622 470.705872,779.261047 
	C475.928680,784.613342 481.140533,790.006165 485.903107,795.756958 
	C487.096924,797.198364 486.946991,800.157227 486.581848,802.275085 
	C486.446259,803.061340 483.885834,804.000122 482.493622,803.909668 
	C469.991669,803.096558 457.494812,802.170471 445.014404,801.073303 
	C435.024200,800.195068 424.980316,799.507080 415.103302,797.871094 
	C403.815338,796.001282 392.551239,793.661865 381.529449,790.613037 
	C372.598511,788.142639 364.155060,783.957581 355.291687,781.184082 
	C342.754181,777.260864 332.580811,769.407898 323.116180,761.066833 
	C317.015503,755.690430 313.398315,747.559692 308.356842,740.899048 
	C303.706635,734.755493 303.925537,727.284729 303.310730,720.479126 
	C302.184784,708.015808 301.925934,695.202393 306.107605,683.125305 
	C310.814575,669.531311 316.058838,656.065552 325.020264,644.513916 
	C326.826965,642.184998 328.659210,639.244080 331.151672,638.218872 
	C335.473999,636.440918 337.895447,640.430847 340.544495,643.098999 
	C345.006470,647.593262 349.568848,651.989624 353.964203,656.547546 
	C358.168488,660.907410 362.199127,665.434204 366.332092,669.863403 
	C372.921967,676.925659 379.528107,683.972717 386.137024,691.017151 
	C394.282990,699.699890 402.393921,708.416077 410.608612,717.033264 
	C414.976410,721.615173 419.531403,726.018555 424.253113,730.752991 
z"/>
<path fill="#2163B0" opacity="1.000000" stroke="none" 
	d="
M746.296875,638.177246 
	C754.569641,648.040344 759.801208,659.241150 765.173828,670.498413 
	C772.643311,686.149292 773.529724,702.535156 772.982849,719.284851 
	C772.535706,732.978943 766.788818,744.596252 758.410645,755.054260 
	C750.052490,765.487122 739.094482,772.921204 727.359985,778.612671 
	C710.120667,786.973938 691.827820,793.015015 672.831970,795.829163 
	C654.313416,798.572510 635.604797,800.046570 616.969788,801.982483 
	C609.267395,802.782654 601.546143,803.453552 593.817017,803.897156 
	C592.293579,803.984558 589.439941,802.881042 589.366821,802.118835 
	C589.150208,799.860962 589.253479,796.845947 590.587341,795.287109 
	C597.647217,787.037231 604.965942,778.992126 612.495117,771.164795 
	C621.690186,761.605530 631.354187,752.495789 640.507446,742.898010 
	C654.687317,728.029541 668.579285,712.886780 682.654541,697.917969 
	C686.489502,693.839539 690.555420,689.978821 694.494934,685.998047 
	C701.885010,678.530518 709.356262,671.140137 716.614258,663.546204 
	C723.588013,656.249695 730.457581,648.844055 737.117493,641.262024 
	C739.629395,638.402344 742.410095,637.559143 746.296875,638.177246 
z"/>
</svg>