<?xml version="1.0" standalone="no"?>
<!DOCTYPE svg PUBLIC "-//W3C//DTD SVG 1.1//EN" "http://www.w3.org/Graphics/SVG/1.1/DTD/svg11.dtd">
<svg xmlns="http://www.w3.org/2000/svg" xmlns:xlink="http://www.w3.org/1999/xlink" version="1.1" id="Layer_1" x="0px" y="0px" viewBox="0 0 1162.2 380" style="enable-background:new 0 0 1162.2 380;" xml:space="preserve" width="1162.199951171875" height="380">
<style type="text/css">
	.st0{fill:#1DAE60;}
	.st1{fill:#FFFFFF;}
</style>
<path class="st0" d="M237,192c26-18,43-47,43-80.9c0-52.9-45-96.9-97.9-96.9H32.3c-8,0-18,8-18,15v322.7c0,8,10,14,18,14h8h74.9V240  l0,0l-47-54.9c-4-5-3-12,2-16s12-3,16,1l29,36l0,0v-103c0-8,8-13,15-11c5,1,10,6,10,12v46l0,0l32-31c4-4,12-4,17,0c4,4,4,12-1,16  l-48,46l0,0v86.8l0,0l45-41c4-4,12-4,17,0c4,4,4,12,0,16l-60.9,55.9l0,0v65.9h42c13,0,24-3,34-7c38-13,62.9-49,62.9-88.9  C279.9,239,262.9,209,237,192z"/>
<g>
	<g>
		<g>
			<path class="st1" d="M496.7,186c18,4,27,21,27,35c0,24-17,44-45,44h-60.9V116.1h56.9c25,0,41,15,41,40     C516.7,167,511.7,180,496.7,186z M474.7,177c12,0,18-10,18-21c0-12-8-19-20-19h-32v40H474.7z M440.8,197v47h38c13,0,22-12,22-23     s-8-24-23-24C477.7,197,440.8,197,440.8,197z"/>
			<path class="st1" d="M541.7,116.1h23v149.8h-23V116.1z"/>
			<path class="st1" d="M579.6,214c0-32,24-51.9,52.9-51.9s52.9,20,52.9,51.9s-24,52.9-52.9,52.9S579.6,246,579.6,214z M662.5,214     c0-18-13-30-31-30c-17,0-30,12-30,30c0,19,13,31,30,31S662.5,234,662.5,214z"/>
			<path class="st1" d="M696.5,188c2-15,18-27,36-27s35,8,37,30h-21c-1-8-8-11-15-11c-6,0-12,3-14,6s-2,6-1,9c2,4,7,6,13,8l16,4     c22,5,26,19,26,29c0,19-17,30-40,30c-18,0-39-12-39-33h20c1,8,8,14,20,14c10,0,18-4,18-12c0-7-7-10-14-12l-13-3     C702.5,216,695.5,205,696.5,188z"/>
			<path class="st1" d="M784.4,188c2-15,18-27,36-27s35,8,37,30h-21c-1-8-8-11-15-11c-6,0-12,3-14,6s-2,6-1,9c2,4,7,6,13,8l16,4     c22,5,26,19,26,29c0,19-17,30-40,30c-18,0-39-12-39-33h20c1,8,8,14,20,14c10,0,18-4,18-12c0-7-7-10-14-12l-13-3     C790.4,216,782.4,205,784.4,188z"/>
			<path class="st1" d="M869.3,214c0-32,24-51.9,52.9-51.9c28.9,0,52.9,20,52.9,51.9s-24,52.9-52.9,52.9     C893.3,266.9,869.3,246,869.3,214z M952.3,214c0-18-13-30-31-30c-17,0-30,12-30,30c0,19,13,31,30,31S952.3,234,952.3,214z"/>
			<path class="st1" d="M1079.1,211v54.9h-23V210c0-16-8-24-20-24c-13,0-25,8-25,27v53.9h-23V166h23v15c7-14,24-18,32-18     c16,0,26,8,32,20c9-18,24-20,34-20c25,0,39,16,39,45v57.9h-23V210c0-16-8-25-21-25C1089.1,184,1079.1,195,1079.1,211z"/>
		</g>
	</g>
</g>
</svg>